#!OML:ASF H:\Not Pregnant\Project 1\Capture day 1\Session 1\non-pregnant.ASF
:FULLY-SPECIFIED
:DEGREES
381
root -5.02753 16.1764 34.6505 -183.194 -83.0518 -168.907
lowerback -6.9744 1.61719 2.80446
upperback -6.32008 1.78732 -0.422758
thorax -2.5262 0.685749 -1.91846
lowerneck 11.9994 -6.5094 -33.8456
upperneck -0.340645 -15.5051 39.9312
head 4.40204 -9.56707 21.0978
rclavicle -4.29872e-015 -3.77691e-015
rhumerus -57.0803 -27.0578 -46.9312
rradius 26.9401
rwrist 4.22778
rhand -8.14366 -18.2674
rfingers 7.12502
rthumb 17.7706 -47.4755
lclavicle -4.29872e-015 -3.77691e-015
lhumerus -59.3627 7.50272 71.2095
lradius 46.3786
lwrist 60.1812
lhand -15.338 -14.0526
lfingers 7.12502
lthumb 10.8388 15.6477
rfemur -13.1631 -9.74462 20.2479
rtibia 18.8314
rfoot -17.5777 15.4091
rtoes -10.6068
lfemur -12.0615 0.413927 -17.7914
ltibia 14.4143
lfoot -12.1565 0.579681
ltoes -20.9939
382
root -5.0234 16.1771 34.6522 -182.788 -83.1375 -169.295
lowerback -6.95225 1.58424 2.81351
upperback -6.3457 1.74265 -0.449839
thorax -2.56664 0.661096 -1.95458
lowerneck 11.7625 -6.522 -33.9401
upperneck -0.279824 -15.4268 39.7653
head 4.41624 -9.48781 21.0061
rclavicle 7.4917e-015 9.44227e-015
rhumerus -57.2935 -26.6455 -47.5524
rradius 26.7237
rwrist 4.42838
rhand -8.30679 -18.3594
rfingers 7.12502
rthumb 17.6136 -47.5815
lclavicle 7.4917e-015 9.44227e-015
lhumerus -58.9011 7.57302 71.3075
lradius 46.6426
lwrist 60.0184
lhand -15.339 -14.0396
lfingers 7.12502
lthumb 10.8378 15.6608
rfemur -13.2111 -9.85478 20.1846
rtibia 18.8637
rfoot -17.5896 15.446
rtoes -10.5417
lfemur -12.071 0.401226 -17.8616
ltibia 14.3317
lfoot -12.153 0.500932
ltoes -21.0203
383
root -5.01877 16.1781 34.6536 -182.773 -83.1985 -169.287
lowerback -6.92161 1.56028 2.87472
upperback -6.37407 1.70799 -0.464043
thorax -2.61331 0.639617 -2.00631
lowerneck 11.5207 -6.5379 -34.0342
upperneck -0.215046 -15.3552 39.6084
head 4.43695 -9.41301 20.9196
rclavicle 3.70485e-014 9.24349e-015
rhumerus -57.4316 -26.0943 -48.4047
rradius 26.6014
rwrist 4.52354
rhand -8.66405 -18.4033
rfingers 7.12502
rthumb 17.2698 -47.656
lclavicle 3.70485e-014 9.24349e-015
lhumerus -58.4341 7.62499 71.4211
lradius 46.8853
lwrist 59.6301
lhand -15.3641 -13.9394
lfingers 7.12502
lthumb 10.8135 15.7623
rfemur -13.2467 -9.90609 20.1795
rtibia 18.8571
rfoot -17.5735 15.4499
rtoes -10.4806
lfemur -12.111 0.393278 -17.8716
ltibia 14.2984
lfoot -12.1692 0.445131
ltoes -21.0662
384
root -5.01407 16.179 34.6542 -183.009 -83.2451 -169.024
lowerback -6.88523 1.54097 2.96073
upperback -6.40196 1.67886 -0.468497
thorax -2.66215 0.620151 -2.06168
lowerneck 11.2753 -6.55676 -34.1251
upperneck -0.147025 -15.2908 39.4652
head 4.46423 -9.34344 20.8406
rclavicle -5.37961e-015 1.98785e-016
rhumerus -57.4847 -25.3934 -49.4951
rradius 26.5533
rwrist 4.47131
rhand -9.18797 -18.383
rfingers 7.12502
rthumb 16.7655 -47.6792
lclavicle -5.37961e-015 1.98785e-016
lhumerus -57.9664 7.65589 71.5531
lradius 47.1187
lwrist 59.1669
lhand -15.3975 -13.8132
lfingers 7.12502
lthumb 10.7813 15.8901
rfemur -13.2633 -9.90339 20.2107
rtibia 18.8161
rfoot -17.5418 15.4054
rtoes -10.4643
lfemur -12.1726 0.392819 -17.844
ltibia 14.309
lfoot -12.2063 0.402728
ltoes -21.1435
385
root -5.00926 16.18 34.6547 -183.613 -83.2721 -168.391
lowerback -6.84202 1.52677 3.08733
upperback -6.42978 1.65536 -0.458
thorax -2.714 0.602209 -2.12418
lowerneck 11.0276 -6.58074 -34.1888
upperneck -0.0803962 -15.229 39.3183
head 4.48952 -9.27478 20.7523
rclavicle 1.42504e-014 8.54774e-015
rhumerus -57.4675 -24.5624 -50.7884
rradius 26.578
rwrist 4.2774
rhand -9.8189 -18.3103
rfingers 7.12502
rthumb 16.158 -47.6568
lclavicle 1.42504e-014 8.54774e-015
lhumerus -57.5003 7.67902 71.6974
lradius 47.3386
lwrist 58.4989
lhand -15.4741 -13.5823
lfingers 7.12502
lthumb 10.7075 16.1248
rfemur -13.2664 -9.85328 20.2921
rtibia 18.7492
rfoot -17.4974 15.3258
rtoes -10.4799
lfemur -12.2491 0.39671 -17.7648
ltibia 14.3525
lfoot -12.2583 0.376275
ltoes -21.2195
